<svg xmlns="http://www.w3.org/2000/svg" viewBox="0 0 512 512" width="512" height="512"><title>MotoBite</title><circle cx="256" cy="256" r="256" fill="#e8002d"></circle><circle cx="256" cy="256" r="238" fill="#111111"></circle><g stroke="#e8002d" stroke-linecap="round" opacity="0.4">
    <line x1="44" y1="245" x2="90" y2="245" stroke-width="5"></line>
    <line x1="36" y1="262" x2="86" y2="262" stroke-width="3.5"></line>
    <line x1="40" y1="278" x2="84" y2="278" stroke-width="2.5"></line>
  </g><circle cx="162" cy="302" r="50" fill="#1a1a1a" stroke="#ffffff" stroke-width="10"></circle><circle cx="162" cy="302" r="24" fill="#111111"></circle><circle cx="162" cy="302" r="7" fill="#e8002d"></circle><g stroke="#ffffff" stroke-width="2.5" opacity="0.65">
    <line x1="162" y1="280" x2="162" y2="324"></line>
    <line x1="140" y1="302" x2="184" y2="302"></line>
    <line x1="146" y1="286" x2="178" y2="318"></line>
    <line x1="178" y1="286" x2="146" y2="318"></line>
  </g><circle cx="360" cy="302" r="50" fill="#1a1a1a" stroke="#ffffff" stroke-width="10"></circle><circle cx="360" cy="302" r="24" fill="#111111"></circle><circle cx="360" cy="302" r="7" fill="#e8002d"></circle><g stroke="#ffffff" stroke-width="2.5" opacity="0.65">
    <line x1="360" y1="280" x2="360" y2="324"></line>
    <line x1="338" y1="302" x2="382" y2="302"></line>
    <line x1="344" y1="286" x2="376" y2="318"></line>
    <line x1="376" y1="286" x2="344" y2="318"></line>
  </g><path d="M178 302 Q208 294 234 290" fill="none" stroke="#cccccc" stroke-width="6" stroke-linecap="round"></path><polygon points="234,290 196,212 300,212 318,254 268,290" fill="#dddddd"></polygon><rect x="220" y="244" width="72" height="50" rx="5" fill="#aaaaaa"></rect><rect x="228" y="252" width="56" height="34" rx="4" fill="#888888"></rect><path d="M220 285 Q198 298 178 302" fill="none" stroke="#999" stroke-width="7" stroke-linecap="round"></path><path d="M318 254 L350 262 L356 302" fill="none" stroke="#cccccc" stroke-width="9" stroke-linecap="round" stroke-linejoin="round"></path><path d="M234 212 Q256 182 300 188 L300 212 Z" fill="#e8002d"></path><path d="M234 212 Q256 186 300 188 Q322 190 324 212 Z" fill="#cccccc"></path><path d="M318 212 L340 190 L362 196 L352 218 Z" fill="#bbbbbb"></path><path d="M346 190 L362 183 L367 194 L350 200 Z" fill="#888888"></path><ellipse cx="360" cy="196" rx="11" ry="8" fill="#e8002d"></ellipse><ellipse cx="360" cy="196" rx="6" ry="4.5" fill="#fff4c2"></ellipse><ellipse cx="272" cy="188" rx="30" ry="26" fill="#222222"></ellipse><path d="M248 194 Q250 172 272 168 Q294 172 296 194 Q282 202 262 202 Z" fill="#333333"></path><path d="M254 186 Q272 180 290 186 L288 192 Q272 187 256 192 Z" fill="#e8002d" opacity="0.9"></path><path d="M256 202 Q250 220 238 228 L246 232 Q260 218 270 212 Q280 208 292 204 L288 196 Q278 204 256 202 Z" fill="#333333"></path><path d="M388 74 A30 30 0 0 0 356 56 A30 30 0 0 0 324 74 A30 30 0 0 0 294 56 A30 30 0 0 0 270 82 L272 50 A256 256 0 0 1 442 50 Z" fill="#111111"></path><path d="M388 74 A30 30 0 0 0 356 56 A30 30 0 0 0 324 74 A30 30 0 0 0 294 56 L270 82" fill="none" stroke="#ffffff" stroke-width="3" stroke-linejoin="round"></path><path d="M270 82 A256 256 0 0 1 442 50" fill="none" stroke="#e8002d" stroke-width="16"></path><polygon points="260,128 248,162 258,158 244,192 278,152 266,156 280,128" fill="#e8002d" opacity="0.95"></polygon><text x="256" y="370" text-anchor="middle" font-family="'Bebas Neue', 'Arial Black', Impact, sans-serif" font-size="46" letter-spacing="3" fill="#ffffff">MOTOBITE</text><text x="256" y="394" text-anchor="middle" font-family="'Bebas Neue', 'Arial Black', Impact, sans-serif" font-size="16" letter-spacing="6" fill="#e8002d">DELIVERY</text></svg>